<?xml version="1.0" standalone="no"?>
<!DOCTYPE svg PUBLIC "-//W3C//DTD SVG 20010904//EN"
 "http://www.w3.org/TR/2001/REC-SVG-20010904/DTD/svg10.dtd">
<svg version="1.0" xmlns="http://www.w3.org/2000/svg"
 width="1200.000000pt" height="1200.000000pt" viewBox="0 0 1200.000000 1200.000000"
 preserveAspectRatio="xMidYMid meet">

<g transform="translate(0.000000,1200.000000) scale(0.100000,-0.100000)"
fill="#000000" stroke="none">
<path d="M2107 7573 c-4 -3 -7 -714 -7 -1580 l0 -1573 410 0 c397 0 410 1 420
20 7 13 10 216 10 622 l-1 603 466 0 466 0 -1 -603 c0 -406 3 -609 10 -622 10
-19 23 -20 420 -20 l410 0 -2 1578 -3 1577 -405 3 c-374 2 -406 1 -418 -15
-10 -13 -12 -141 -12 -578 0 -308 0 -564 0 -570 0 -7 -162 -10 -465 -10 -303
0 -465 3 -465 10 0 6 0 261 0 568 0 374 -3 564 -10 577 -10 19 -22 20 -414 20
-221 0 -406 -3 -409 -7z"/>
<path d="M5270 5500 l0 -310 85 0 85 0 0 125 0 125 90 0 90 0 0 -125 0 -125
80 0 80 0 0 310 0 310 -80 0 -80 0 0 -115 0 -115 -90 0 -90 0 0 115 0 115 -85
0 -85 0 0 -310z"/>
<path d="M6009 5653 c-66 -34 -105 -87 -121 -165 -23 -109 15 -211 100 -268
78 -52 176 -52 253 0 57 38 86 83 101 153 44 210 -149 373 -333 280z m151
-130 c19 -24 21 -38 18 -102 -3 -62 -7 -76 -27 -92 -31 -25 -47 -24 -76 6 -22
21 -25 33 -25 93 0 55 4 75 21 96 27 34 62 34 89 -1z"/>
<path d="M6655 5664 c-16 -8 -40 -25 -52 -36 l-23 -21 -6 32 -7 32 -66 -3 -66
-3 -3 -237 -2 -238 85 0 85 0 0 159 c0 154 1 160 22 175 31 22 65 20 78 -3 6
-11 10 -87 10 -175 l0 -156 80 0 80 0 0 154 0 155 26 20 c29 23 51 26 74 11
12 -7 16 -41 18 -175 l3 -165 80 0 79 0 0 173 c-1 257 -27 312 -150 312 -51 0
-63 -4 -100 -34 l-42 -33 -26 25 c-15 13 -37 30 -49 36 -31 16 -93 14 -128 -5z"/>
<path d="M7360 5653 c-98 -52 -147 -163 -122 -280 23 -109 98 -179 205 -190
57 -6 145 14 182 41 21 15 19 19 -29 103 -1 1 -23 -4 -51 -11 -59 -16 -113 -6
-137 25 -10 11 -18 25 -18 30 0 5 61 9 135 9 l135 0 0 64 c0 112 -37 181 -115
217 -59 27 -123 24 -185 -8z m148 -115 c6 -6 12 -19 12 -29 0 -17 -8 -19 -65
-19 -69 0 -82 12 -47 42 32 29 68 31 100 6z"/>
<path d="M7974 5661 c-17 -10 -40 -31 -51 -45 -12 -14 -23 -26 -26 -26 -3 0
-7 17 -9 38 l-3 37 -67 3 -68 3 0 -241 0 -240 85 0 85 0 0 143 c0 132 2 145
21 166 28 29 62 42 98 35 28 -6 29 -6 40 60 7 37 9 71 6 76 -10 17 -78 11
-111 -9z"/>
<path d="M5265 5038 c-3 -7 -4 -144 -3 -303 l3 -290 55 0 c63 0 57 -14 59 143
l1 92 80 0 79 0 3 -117 3 -118 55 0 55 0 0 300 0 300 -43 3 c-67 5 -72 -4 -72
-134 l0 -114 -80 0 -79 0 -3 123 -3 122 -53 3 c-36 2 -54 -1 -57 -10z"/>
<path d="M5860 5028 c-35 -18 -51 -35 -70 -73 -23 -47 -25 -60 -25 -205 0
-145 2 -158 25 -204 32 -64 65 -87 137 -97 108 -15 186 18 225 94 17 34 22 65
26 167 6 161 -7 228 -55 281 -57 63 -177 80 -263 37z m159 -105 c32 -28 40
-92 32 -286 -1 -15 -12 -39 -26 -53 -20 -20 -33 -25 -68 -22 -62 4 -77 39 -77
185 0 115 9 159 37 181 24 18 77 15 102 -5z"/>
<path d="M6285 5038 c-3 -7 -6 -143 -8 -303 l-2 -290 55 0 55 0 3 175 2 175
60 -101 c32 -56 66 -104 75 -108 22 -8 46 20 100 118 25 47 47 86 48 86 1 0 2
-15 2 -32 1 -18 2 -97 3 -175 l2 -143 54 0 c30 0 56 4 58 10 2 5 1 142 -2 302
l-5 293 -49 0 -49 0 -38 -63 c-21 -34 -55 -94 -76 -132 -21 -39 -40 -70 -43
-70 -3 0 -21 30 -39 68 -44 87 -102 185 -115 194 -18 13 -86 9 -91 -4z"/>
<path d="M6905 5037 c-3 -7 -4 -140 -3 -297 l3 -285 175 0 175 0 0 55 0 55
-117 3 -118 3 0 69 0 70 114 0 113 0 7 46 c3 25 3 50 0 55 -3 5 -57 9 -120 9
l-114 0 0 55 0 54 118 3 117 3 3 58 3 57 -176 0 c-132 0 -177 -3 -180 -13z"/>
<path d="M7626 5042 c-8 -13 -9 -569 -1 -582 8 -13 92 -13 100 1 4 6 6 62 6
125 l-2 114 105 0 c57 0 111 3 120 6 12 5 16 20 16 60 l0 54 -115 0 -115 0 0
55 0 55 114 0 113 0 6 53 c2 28 3 55 0 60 -6 10 -341 9 -347 -1z"/>
<path d="M8084 5038 c-5 -7 -9 -143 -9 -303 l0 -290 49 -3 c27 -2 52 0 57 5
10 11 16 574 6 591 -5 6 -28 12 -51 12 -24 0 -47 -6 -52 -12z"/>
<path d="M8305 5038 c-3 -7 -4 -141 -3 -298 l3 -285 55 0 55 0 5 165 5 164 53
-89 c155 -261 143 -247 201 -243 l46 3 0 295 0 295 -44 3 c-54 4 -66 -7 -66
-61 0 -23 -2 -96 -3 -162 l-3 -120 -24 40 c-13 22 -34 56 -45 75 -12 19 -47
78 -79 130 l-57 95 -47 3 c-32 2 -49 -1 -52 -10z"/>
<path d="M8852 5037 c-9 -11 -12 -87 -10 -298 l3 -284 115 -3 c144 -4 172 1
216 40 64 57 69 74 69 258 0 152 -2 168 -23 207 -36 69 -81 87 -232 91 -102 3
-128 1 -138 -11z m250 -128 c23 -27 32 -94 26 -201 -7 -117 -24 -138 -110
-138 l-58 0 0 185 0 185 63 -6 c44 -4 67 -12 79 -25z"/>
<path d="M9355 5038 c-3 -7 -4 -141 -3 -298 l3 -285 175 0 175 0 0 55 0 55
-117 3 -118 3 0 69 0 70 115 0 115 0 0 55 0 55 -115 0 -115 0 0 55 0 55 115 0
c112 0 115 1 121 24 3 13 4 38 2 57 l-3 34 -173 3 c-133 2 -174 0 -177 -10z"/>
<path d="M9814 5039 c-9 -16 -8 -575 2 -591 7 -12 81 -5 95 9 5 5 9 59 10 121
1 88 4 112 15 112 8 0 36 -47 64 -105 55 -115 86 -145 148 -145 54 0 72 15 72
61 0 23 -5 41 -12 43 -67 18 -74 23 -105 81 -18 33 -33 63 -33 66 0 4 11 10
24 13 41 10 93 67 106 116 23 86 -6 167 -73 202 -35 18 -63 23 -173 26 -102 3
-133 1 -140 -9z m230 -110 c14 -7 30 -25 36 -42 20 -58 -31 -94 -121 -85 -34
3 -34 3 -36 58 -2 30 -1 61 2 68 6 15 85 16 119 1z"/>
</g>
</svg>
