<svg xmlns="http://www.w3.org/2000/svg" viewBox="0 0 24 24" height="24" width="24"><title>barrier.svg</title><rect fill="none" x="0" y="0" width="24" height="24"></rect><rect x="2" y="2" rx="2.5" ry="2.5" width="19" height="19" stroke="#000" style="stroke-linejoin:round;stroke-miterlimit:4;" fill="#000" stroke-width="3"></rect><rect x="2" y="2" width="19" height="19" rx="2.5" ry="2.5" fill="#45f75d"></rect><path fill="#000" transform="translate(4 4)" d="M13,3H2A1,1,0,0,0,1,4v6a1,1,0,0,0,1,1H3v2.5a.5.5,0,0,0,1,0V13h7v.5a.5.5,0,0,0,1,0V11h1a1,1,0,0,0,1-1V4A1,1,0,0,0,13,3Zm0,1V6L11,4ZM9.5,4,13,7.5V10L7,4Zm-4,6L2,6.5V4l6,6ZM2,10V8l2,2Zm9,2H4V11h7Zm-.207-2H9.5l-6-6h2l6,6Z" style="stroke-linejoin:round;stroke-miterlimit:4;" stroke="#000" stroke-width="2"></path><path fill="#45f75d" transform="translate(4 4)" d="M13,3H2A1,1,0,0,0,1,4v6a1,1,0,0,0,1,1H3v2.5a.5.5,0,0,0,1,0V13h7v.5a.5.5,0,0,0,1,0V11h1a1,1,0,0,0,1-1V4A1,1,0,0,0,13,3Zm0,1V6L11,4ZM9.5,4,13,7.5V10L7,4Zm-4,6L2,6.5V4l6,6ZM2,10V8l2,2Zm9,2H4V11h7Zm-.207-2H9.5l-6-6h2l6,6Z"></path></svg>