<svg xmlns="http://www.w3.org/2000/svg" viewBox="0 0 24 24" height="24" width="24"><title>building.svg</title><rect fill="none" x="0" y="0" width="24" height="24"></rect><rect x="2" y="2" rx="2.5" ry="2.5" width="19" height="19" stroke="#000" style="stroke-linejoin:round;stroke-miterlimit:4;" fill="#000" stroke-width="3"></rect><rect x="2" y="2" width="19" height="19" rx="2.5" ry="2.5" fill="#45f75d"></rect><path fill="#000" transform="translate(4 4)" d="M3,2v11h5v-3h3v3h1V2H3z M7,12H4v-2h3V12z M7,9H4V7h3V9z M7,6H4V4h3V6z M11,9H8V7h3V9z M11,6H8V4h3V6z" style="stroke-linejoin:round;stroke-miterlimit:4;" stroke="#000" stroke-width="2"></path><path fill="#45f75d" transform="translate(4 4)" d="M3,2v11h5v-3h3v3h1V2H3z M7,12H4v-2h3V12z M7,9H4V7h3V9z M7,6H4V4h3V6z M11,9H8V7h3V9z M11,6H8V4h3V6z"></path></svg>