<svg xmlns="http://www.w3.org/2000/svg" viewBox="0 0 24 24" height="24" width="24"><title>construction.svg</title><rect fill="none" x="0" y="0" width="24" height="24"></rect><rect x="2" y="2" rx="2.5" ry="2.5" width="19" height="19" stroke="#000" style="stroke-linejoin:round;stroke-miterlimit:4;" fill="#000" stroke-width="3"></rect><rect x="2" y="2" width="19" height="19" rx="2.5" ry="2.5" fill="#45f75d"></rect><path fill="#000" transform="translate(4 4)" d="M13.5,12h-1.8L8.2,1.5C8,0.8,7,0.8,6.8,1.5L3.3,12H1.5C1.2,12,1,12.2,1,12.5v1C1,13.8,1.2,14,1.5,14h12
	c0.3,0,0.5-0.2,0.5-0.5v-1C14,12.2,13.8,12,13.5,12z M7,4H8l0.7,2H6.4L7,4z M5.7,8h3.6l0.7,2H5L5.7,8z" style="stroke-linejoin:round;stroke-miterlimit:4;" stroke="#000" stroke-width="2"></path><path fill="#45f75d" transform="translate(4 4)" d="M13.5,12h-1.8L8.2,1.5C8,0.8,7,0.8,6.8,1.5L3.3,12H1.5C1.2,12,1,12.2,1,12.5v1C1,13.8,1.2,14,1.5,14h12
	c0.3,0,0.5-0.2,0.5-0.5v-1C14,12.2,13.8,12,13.5,12z M7,4H8l0.7,2H6.4L7,4z M5.7,8h3.6l0.7,2H5L5.7,8z"></path></svg>