<svg xmlns="http://www.w3.org/2000/svg" viewBox="0 0 24 24" height="24" width="24"><title>diamond.svg</title><rect fill="none" x="0" y="0" width="24" height="24"></rect><rect x="2" y="2" rx="2.5" ry="2.5" width="19" height="19" stroke="#000" style="stroke-linejoin:round;stroke-miterlimit:4;" fill="#000" stroke-width="3"></rect><rect x="2" y="2" width="19" height="19" rx="2.5" ry="2.5" fill="#45f75d"></rect><path fill="#000" transform="translate(4 4)" d="M7.03715 1.20147L2.12542 6.7C2.04962 6.78393 2.00568 6.89005 2.00051 7C1.99535 7.10994 2.02925 7.21013 2.09689 7.3L7.0065 13.7601C7.06233 13.8343 7.13629 13.8947 7.22216 13.9365C7.30803 13.9782 7.40331 14 7.5 14C7.59669 14 7.69197 13.9782 7.77784 13.9365C7.86371 13.8947 7.93766 13.8343 7.9935 13.7601L12.9031 7.3C12.9707 7.21013 13.0047 7.10994 12.9995 7C12.9943 6.89005 12.9504 6.78393 12.8746 6.7L7.96285 1.20147C7.90591 1.13833 7.83501 1.08761 7.75508 1.05282C7.67514 1.01802 7.5881 1 7.5 1C7.4119 1 7.32486 1.01802 7.24492 1.05282C7.16499 1.08761 7.09409 1.13833 7.03715 1.20147Z" style="stroke-linejoin:round;stroke-miterlimit:4;" stroke="#000" stroke-width="2"></path><path fill="#45f75d" transform="translate(4 4)" d="M7.03715 1.20147L2.12542 6.7C2.04962 6.78393 2.00568 6.89005 2.00051 7C1.99535 7.10994 2.02925 7.21013 2.09689 7.3L7.0065 13.7601C7.06233 13.8343 7.13629 13.8947 7.22216 13.9365C7.30803 13.9782 7.40331 14 7.5 14C7.59669 14 7.69197 13.9782 7.77784 13.9365C7.86371 13.8947 7.93766 13.8343 7.9935 13.7601L12.9031 7.3C12.9707 7.21013 13.0047 7.10994 12.9995 7C12.9943 6.89005 12.9504 6.78393 12.8746 6.7L7.96285 1.20147C7.90591 1.13833 7.83501 1.08761 7.75508 1.05282C7.67514 1.01802 7.5881 1 7.5 1C7.4119 1 7.32486 1.01802 7.24492 1.05282C7.16499 1.08761 7.09409 1.13833 7.03715 1.20147Z"></path></svg>