<svg xmlns="http://www.w3.org/2000/svg" viewBox="0 0 24 24" height="24" width="24"><title>entrance.svg</title><rect fill="none" x="0" y="0" width="24" height="24"></rect><rect x="2" y="2" rx="2.5" ry="2.5" width="19" height="19" stroke="#000" style="stroke-linejoin:round;stroke-miterlimit:4;" fill="#000" stroke-width="3"></rect><rect x="2" y="2" width="19" height="19" rx="2.5" ry="2.5" fill="#45f75d"></rect><path fill="#000" transform="translate(4 4)" d="M7,6.5v-1a1,1,0,0,0-2,0v3ZM5,3A1,1,0,1,1,6,4,1,1,0,0,1,5,3m9,3h0a1,1,0,0,1-1,1H11.42a1,1,0,0,0-.71.29L5.29,12.71a1,1,0,0,1-.7.29H2a1,1,0,0,1-1-1H1a1,1,0,0,1,1-1H3.59a1,1,0,0,0,.7-.29L9.71,5.29A1,1,0,0,1,10.42,5H13A1,1,0,0,1,14,6Z" style="stroke-linejoin:round;stroke-miterlimit:4;" stroke="#000" stroke-width="2"></path><path fill="#45f75d" transform="translate(4 4)" d="M7,6.5v-1a1,1,0,0,0-2,0v3ZM5,3A1,1,0,1,1,6,4,1,1,0,0,1,5,3m9,3h0a1,1,0,0,1-1,1H11.42a1,1,0,0,0-.71.29L5.29,12.71a1,1,0,0,1-.7.29H2a1,1,0,0,1-1-1H1a1,1,0,0,1,1-1H3.59a1,1,0,0,0,.7-.29L9.71,5.29A1,1,0,0,1,10.42,5H13A1,1,0,0,1,14,6Z"></path></svg>