<svg xmlns="http://www.w3.org/2000/svg" viewBox="0 0 24 24" height="24" width="24"><title>farm.svg</title><rect fill="none" x="0" y="0" width="24" height="24"></rect><rect x="2" y="2" rx="2.5" ry="2.5" width="19" height="19" stroke="#000" style="stroke-linejoin:round;stroke-miterlimit:4;" fill="#000" stroke-width="3"></rect><rect x="2" y="2" width="19" height="19" rx="2.5" ry="2.5" fill="#45f75d"></rect><path fill="#000" transform="translate(4 4)" d="M8,7L5,5,2,7,1,9v4H3V11H7v2H9V9ZM6,9H4V7H6V9Zm8,4H11V3.5a1.5,1.5,0,0,1,3,0V13Z" style="stroke-linejoin:round;stroke-miterlimit:4;" stroke="#000" stroke-width="2"></path><path fill="#45f75d" transform="translate(4 4)" d="M8,7L5,5,2,7,1,9v4H3V11H7v2H9V9ZM6,9H4V7H6V9Zm8,4H11V3.5a1.5,1.5,0,0,1,3,0V13Z"></path></svg>