<svg xmlns="http://www.w3.org/2000/svg" viewBox="0 0 24 24" height="24" width="24"><title>ferry-JP.svg</title><rect fill="none" x="0" y="0" width="24" height="24"></rect><rect x="2" y="2" rx="2.5" ry="2.5" width="19" height="19" stroke="#000" style="stroke-linejoin:round;stroke-miterlimit:4;" fill="#000" stroke-width="3"></rect><rect x="2" y="2" width="19" height="19" rx="2.5" ry="2.5" fill="#45f75d"></rect><path fill="#000" transform="translate(4 4)" d="M3,7c0,0.5,0,5,0,5c0,0.6,0.4,1,1,1h6c0.6,0,1-0.4,1-1c0,0,0-4.5,0-5c0-2-3-7-4-7S3,5,3,7z M5,11V8c0-3,2-5.5,2-5.5S9,5,9,8
	v3H5z" style="stroke-linejoin:round;stroke-miterlimit:4;" stroke="#000" stroke-width="2"></path><path fill="#45f75d" transform="translate(4 4)" d="M3,7c0,0.5,0,5,0,5c0,0.6,0.4,1,1,1h6c0.6,0,1-0.4,1-1c0,0,0-4.5,0-5c0-2-3-7-4-7S3,5,3,7z M5,11V8c0-3,2-5.5,2-5.5S9,5,9,8
	v3H5z"></path></svg>