<svg xmlns="http://www.w3.org/2000/svg" viewBox="0 0 24 24" height="24" width="24"><title>fitness-centre.svg</title><rect fill="none" x="0" y="0" width="24" height="24"></rect><rect x="2" y="2" rx="2.5" ry="2.5" width="19" height="19" stroke="#000" style="stroke-linejoin:round;stroke-miterlimit:4;" fill="#000" stroke-width="3"></rect><rect x="2" y="2" width="19" height="19" rx="2.5" ry="2.5" fill="#45f75d"></rect><path fill="#000" transform="translate(4 4)" d="M14.5,7V8h-1v2h-1v1H11V8H4v3H2.5V10h-1V8H.5V7h1V5h1V4H4V7h7V4h1.5V5h1V7Z" style="stroke-linejoin:round;stroke-miterlimit:4;" stroke="#000" stroke-width="2"></path><path fill="#45f75d" transform="translate(4 4)" d="M14.5,7V8h-1v2h-1v1H11V8H4v3H2.5V10h-1V8H.5V7h1V5h1V4H4V7h7V4h1.5V5h1V7Z"></path></svg>