<svg xmlns="http://www.w3.org/2000/svg" viewBox="0 0 24 24" height="24" width="24"><title>hospital.svg</title><rect fill="none" x="0" y="0" width="24" height="24"></rect><rect x="2" y="2" rx="2.5" ry="2.5" width="19" height="19" stroke="#000" style="stroke-linejoin:round;stroke-miterlimit:4;" fill="#000" stroke-width="3"></rect><rect x="2" y="2" width="19" height="19" rx="2.5" ry="2.5" fill="#45f75d"></rect><path fill="#000" transform="translate(4 4)" d="M7,1C6.4,1,6,1.4,6,2v4H2C1.4,6,1,6.4,1,7v1
	c0,0.6,0.4,1,1,1h4v4c0,0.6,0.4,1,1,1h1c0.6,0,1-0.4,1-1V9h4c0.6,0,1-0.4,1-1V7c0-0.6-0.4-1-1-1H9V2c0-0.6-0.4-1-1-1H7z" style="stroke-linejoin:round;stroke-miterlimit:4;" stroke="#000" stroke-width="2"></path><path fill="#45f75d" transform="translate(4 4)" d="M7,1C6.4,1,6,1.4,6,2v4H2C1.4,6,1,6.4,1,7v1
	c0,0.6,0.4,1,1,1h4v4c0,0.6,0.4,1,1,1h1c0.6,0,1-0.4,1-1V9h4c0.6,0,1-0.4,1-1V7c0-0.6-0.4-1-1-1H9V2c0-0.6-0.4-1-1-1H7z"></path></svg>