<svg xmlns="http://www.w3.org/2000/svg" viewBox="0 0 24 24" height="24" width="24"><title>monument-JP.svg</title><rect fill="none" x="0" y="0" width="24" height="24"></rect><rect x="2" y="2" rx="2.5" ry="2.5" width="19" height="19" stroke="#000" style="stroke-linejoin:round;stroke-miterlimit:4;" fill="#000" stroke-width="3"></rect><rect x="2" y="2" width="19" height="19" rx="2.5" ry="2.5" fill="#45f75d"></rect><path fill="#000" transform="translate(4 4)" d="M12,13H4c-0.5,0-1-0.5-1-1V5c0-2,0.8-4,4-4c3.1,0,4,2,4,4v6h1c0.5,0,1,0.5,1,1S12.5,13,12,13z M5,11h4V5c0-1,0-2-2-2
	S5,4,5,5V11z" style="stroke-linejoin:round;stroke-miterlimit:4;" stroke="#000" stroke-width="2"></path><path fill="#45f75d" transform="translate(4 4)" d="M12,13H4c-0.5,0-1-0.5-1-1V5c0-2,0.8-4,4-4c3.1,0,4,2,4,4v6h1c0.5,0,1,0.5,1,1S12.5,13,12,13z M5,11h4V5c0-1,0-2-2-2
	S5,4,5,5V11z"></path></svg>