<svg xmlns="http://www.w3.org/2000/svg" viewBox="0 0 24 24" height="24" width="24"><title>museum.svg</title><rect fill="none" x="0" y="0" width="24" height="24"></rect><rect x="2" y="2" rx="2.5" ry="2.5" width="19" height="19" stroke="#000" style="stroke-linejoin:round;stroke-miterlimit:4;" fill="#000" stroke-width="3"></rect><rect x="2" y="2" width="19" height="19" rx="2.5" ry="2.5" fill="#45f75d"></rect><path fill="#000" transform="translate(4 4)" d="M7.5,0L1,3.5V4h13V3.5L7.5,0z M2,5v5l-1,1.6V13h13v-1.4L13,10V5H2z M4,6h1v5.5H4V6z M7,6h1v5.5H7V6z M10,6h1
	v5.5h-1V6z" style="stroke-linejoin:round;stroke-miterlimit:4;" stroke="#000" stroke-width="2"></path><path fill="#45f75d" transform="translate(4 4)" d="M7.5,0L1,3.5V4h13V3.5L7.5,0z M2,5v5l-1,1.6V13h13v-1.4L13,10V5H2z M4,6h1v5.5H4V6z M7,6h1v5.5H7V6z M10,6h1
	v5.5h-1V6z"></path></svg>