<svg xmlns="http://www.w3.org/2000/svg" viewBox="0 0 24 24" height="24" width="24"><title>post-JP.svg</title><rect fill="none" x="0" y="0" width="24" height="24"></rect><rect x="2" y="2" rx="2.5" ry="2.5" width="19" height="19" stroke="#000" style="stroke-linejoin:round;stroke-miterlimit:4;" fill="#000" stroke-width="3"></rect><rect x="2" y="2" width="19" height="19" rx="2.5" ry="2.5" fill="#45f75d"></rect><path fill="#000" transform="translate(4 4)" d="M1.5,3a1,1,0,0,1,1-1h10a1,1,0,0,1,0,2H2.5a1,1,0,0,1-1-.9995Zm11,2.5H2.5a1,1,0,0,0,0,2h4V12a1,1,0,0,0,2,0V7.5h4a1,1,0,0,0,0-2Z" style="stroke-linejoin:round;stroke-miterlimit:4;" stroke="#000" stroke-width="2"></path><path fill="#45f75d" transform="translate(4 4)" d="M1.5,3a1,1,0,0,1,1-1h10a1,1,0,0,1,0,2H2.5a1,1,0,0,1-1-.9995Zm11,2.5H2.5a1,1,0,0,0,0,2h4V12a1,1,0,0,0,2,0V7.5h4a1,1,0,0,0,0-2Z"></path></svg>