<svg xmlns="http://www.w3.org/2000/svg" viewBox="0 0 24 24" height="24" width="24"><title>ranger-station.svg</title><rect fill="none" x="0" y="0" width="24" height="24"></rect><rect x="2" y="2" rx="2.5" ry="2.5" width="19" height="19" stroke="#000" style="stroke-linejoin:round;stroke-miterlimit:4;" fill="#000" stroke-width="3"></rect><rect x="2" y="2" width="19" height="19" rx="2.5" ry="2.5" fill="#45f75d"></rect><path fill="#000" transform="translate(4 4)" d="M9,0.5l-2,1v3.7734L2,8v6h4v-4h3
	v4h4V8L8,5.2734V4l1-0.5l2,1l2-1v-3l-2,1L9,0.5z" style="stroke-linejoin:round;stroke-miterlimit:4;" stroke="#000" stroke-width="2"></path><path fill="#45f75d" transform="translate(4 4)" d="M9,0.5l-2,1v3.7734L2,8v6h4v-4h3
	v4h4V8L8,5.2734V4l1-0.5l2,1l2-1v-3l-2,1L9,0.5z"></path></svg>