<svg xmlns="http://www.w3.org/2000/svg" viewBox="0 0 24 24" height="24" width="24"><title>religious-jewish.svg</title><rect fill="none" x="0" y="0" width="24" height="24"></rect><rect x="2" y="2" rx="2.5" ry="2.5" width="19" height="19" stroke="#000" style="stroke-linejoin:round;stroke-miterlimit:4;" fill="#000" stroke-width="3"></rect><rect x="2" y="2" width="19" height="19" rx="2.5" ry="2.5" fill="#45f75d"></rect><path fill="#000" transform="translate(4 4)" d="M15,12H9.78L7.5,15l-2.26-3H0l2.7-4L0,4h5.3l2.2-4l2.34,4H15l-2.56,4L15,12z" style="stroke-linejoin:round;stroke-miterlimit:4;" stroke="#000" stroke-width="2"></path><path fill="#45f75d" transform="translate(4 4)" d="M15,12H9.78L7.5,15l-2.26-3H0l2.7-4L0,4h5.3l2.2-4l2.34,4H15l-2.56,4L15,12z"></path></svg>