<svg xmlns="http://www.w3.org/2000/svg" viewBox="0 0 24 24" height="24" width="24"><title>skateboard.svg</title><rect fill="none" x="0" y="0" width="24" height="24"></rect><rect x="2" y="2" rx="2.5" ry="2.5" width="19" height="19" stroke="#000" style="stroke-linejoin:round;stroke-miterlimit:4;" fill="#000" stroke-width="3"></rect><rect x="2" y="2" width="19" height="19" rx="2.5" ry="2.5" fill="#45f75d"></rect><path fill="#000" transform="translate(4 4)" d="M11,8H4A2.0024,2.0024,0,0,1,2,6H3A1.001,1.001,0,0,0,4,7h7a1.001,1.001,0,0,0,1-1h1A2.0024,2.0024,0,0,1,11,8Zm0,1a1,1,0,1,0,1,1A1,1,0,0,0,11,9ZM4,9a1,1,0,1,0,1,1A1,1,0,0,0,4,9Z" style="stroke-linejoin:round;stroke-miterlimit:4;" stroke="#000" stroke-width="2"></path><path fill="#45f75d" transform="translate(4 4)" d="M11,8H4A2.0024,2.0024,0,0,1,2,6H3A1.001,1.001,0,0,0,4,7h7a1.001,1.001,0,0,0,1-1h1A2.0024,2.0024,0,0,1,11,8Zm0,1a1,1,0,1,0,1,1A1,1,0,0,0,11,9ZM4,9a1,1,0,1,0,1,1A1,1,0,0,0,4,9Z"></path></svg>