<svg xmlns="http://www.w3.org/2000/svg" viewBox="0 0 24 24" height="24" width="24"><title>suitcase.svg</title><rect fill="none" x="0" y="0" width="24" height="24"></rect><rect x="2" y="2" rx="2.5" ry="2.5" width="19" height="19" stroke="#000" style="stroke-linejoin:round;stroke-miterlimit:4;" fill="#000" stroke-width="3"></rect><rect x="2" y="2" width="19" height="19" rx="2.5" ry="2.5" fill="#45f75d"></rect><path fill="#000" transform="translate(4 4)" d="M11,4V2c0-1-1-1-1-1H5.0497
	c0,0-1.1039,0.0015-1.0497,1v2H2c0,0-1,0-1,1v7c0,1,1,1,1,1h11c0,0,1,0,1-1V5c0-1-1-1-1-1H11z M5.5,2.5h4V4h-4V2.5z" style="stroke-linejoin:round;stroke-miterlimit:4;" stroke="#000" stroke-width="2"></path><path fill="#45f75d" transform="translate(4 4)" d="M11,4V2c0-1-1-1-1-1H5.0497
	c0,0-1.1039,0.0015-1.0497,1v2H2c0,0-1,0-1,1v7c0,1,1,1,1,1h11c0,0,1,0,1-1V5c0-1-1-1-1-1H11z M5.5,2.5h4V4h-4V2.5z"></path></svg>